<?xml version="1.0" encoding="UTF-8"?> <svg xmlns="http://www.w3.org/2000/svg" width="650" height="550" viewBox="0 0 650 550" fill="none"><g opacity="0.2"><path d="M115.616 86.7719C113.923 82.9988 111.138 80.7349 107.005 80.0881C105.915 79.9264 104.795 79.8994 103.705 79.8994C99.3421 79.8725 95.0081 79.8994 90.6455 79.8725C88.579 79.8725 87.0004 78.3902 87.0004 76.4767C86.9717 74.5092 88.5503 73 90.6742 73C102.901 73 115.128 73 127.326 73C129.45 73 131 74.5092 131 76.4767C130.971 78.3632 129.421 79.8455 127.355 79.8725C124.973 79.8994 122.562 79.8725 120.266 79.8725C121.356 82.1364 122.447 84.3463 123.624 86.7719C124.628 86.7719 125.92 86.7719 127.211 86.7719C129.421 86.7989 131 88.2542 131 90.2486C130.971 92.189 129.393 93.6174 127.24 93.6444C125.949 93.6444 124.657 93.6444 123.451 93.6444C119.864 104.856 111.368 108.413 99.4856 107.282C100.031 107.847 100.289 108.117 100.576 108.387C107.809 115.178 115.042 121.97 122.275 128.788C123.997 130.405 124.14 132.373 122.734 133.855C121.385 135.23 119.232 135.391 117.682 134.205C117.424 133.99 117.166 133.774 116.936 133.532C107.465 124.638 97.9644 115.744 88.5216 106.796C87.8614 106.177 87.2587 105.287 87.0865 104.452C86.656 102.376 88.4068 100.544 90.6742 100.544C95.3813 100.517 100.06 100.544 104.767 100.544C109.043 100.517 112.43 98.9268 114.726 95.4501C114.956 95.1267 115.099 94.7494 115.3 94.399C115.386 94.2103 115.472 93.9947 115.587 93.6713C115.071 93.6713 114.669 93.6713 114.267 93.6713C106.403 93.6713 98.5384 93.6713 90.6742 93.6713C88.866 93.6713 87.3161 92.4316 87.0578 90.8145C86.7708 89.0627 87.8614 87.4187 89.6983 86.9336C90.1576 86.7989 90.6742 86.7989 91.1621 86.7989C98.8255 86.7989 106.517 86.7989 114.181 86.7989C114.583 86.7719 114.984 86.7719 115.616 86.7719Z" fill="#97AAD6"></path><path d="M552.616 51.7719C550.923 47.9988 548.138 45.7349 544.005 45.0881C542.915 44.9264 541.795 44.8994 540.705 44.8994C536.342 44.8725 532.008 44.8994 527.645 44.8725C525.579 44.8725 524 43.3902 524 41.4767C523.972 39.5092 525.55 38 527.674 38C539.901 38 552.128 38 564.326 38C566.45 38 568 39.5092 568 41.4767C567.971 43.3632 566.421 44.8455 564.355 44.8725C561.973 44.8994 559.562 44.8725 557.266 44.8725C558.356 47.1364 559.447 49.3463 560.624 51.7719C561.628 51.7719 562.92 51.7719 564.211 51.7719C566.421 51.7989 568 53.2542 568 55.2486C567.971 57.189 566.393 58.6174 564.24 58.6444C562.949 58.6444 561.657 58.6444 560.451 58.6444C556.864 69.8559 548.368 73.4135 536.486 72.2815C537.031 72.8475 537.289 73.117 537.576 73.3865C544.809 80.1781 552.042 86.9698 559.275 93.7883C560.997 95.4054 561.14 97.3728 559.734 98.8551C558.385 100.23 556.232 100.391 554.682 99.2055C554.424 98.9899 554.166 98.7743 553.936 98.5317C544.465 89.6379 534.964 80.7441 525.522 71.7964C524.861 71.1765 524.259 70.2872 524.086 69.4517C523.656 67.3765 525.407 65.5438 527.674 65.5438C532.381 65.5169 537.06 65.5438 541.767 65.5438C546.043 65.5169 549.43 63.9268 551.726 60.4501C551.956 60.1267 552.099 59.7494 552.3 59.399C552.386 59.2103 552.472 58.9947 552.587 58.6713C552.071 58.6713 551.669 58.6713 551.267 58.6713C543.403 58.6713 535.538 58.6713 527.674 58.6713C525.866 58.6713 524.316 57.4316 524.058 55.8145C523.771 54.0627 524.861 52.4187 526.698 51.9336C527.158 51.7989 527.674 51.7989 528.162 51.7989C535.825 51.7989 543.517 51.7989 551.181 51.7989C551.583 51.7719 551.984 51.7719 552.616 51.7719Z" fill="#97AAD6"></path><path d="M73.7771 368.101C70.8907 361.772 66.1451 357.975 59.1002 356.89C57.2411 356.618 55.3331 356.573 53.474 356.573C46.0376 356.528 38.6502 356.573 31.2139 356.528C27.6914 356.528 25.0007 354.042 25.0007 350.832C24.9517 347.532 27.6425 345 31.2628 345C52.1041 345 72.9454 345 93.7378 345C97.3581 345 100 347.532 100 350.832C99.9511 353.996 97.3092 356.483 93.7868 356.528C89.7261 356.573 85.6166 356.528 81.7027 356.528C83.5618 360.325 85.4209 364.033 87.4267 368.101C89.139 368.101 91.3406 368.101 93.5421 368.101C97.3092 368.146 100 370.588 100 373.933C99.9511 377.188 97.2603 379.584 93.5911 379.629C91.3895 379.629 89.188 379.629 87.1332 379.629C81.0178 398.436 66.5365 404.403 46.2823 402.505C47.2118 403.454 47.6521 403.906 48.1414 404.358C60.47 415.75 72.7987 427.143 85.1273 438.58C88.0627 441.293 88.3073 444.593 85.9101 447.08C83.6107 449.385 79.9415 449.656 77.2996 447.667C76.8593 447.306 76.419 446.944 76.0276 446.537C59.8829 431.618 43.6893 416.7 27.5936 401.691C26.4683 400.651 25.441 399.159 25.1474 397.758C24.4136 394.277 27.3979 391.203 31.2628 391.203C39.2862 391.157 47.2607 391.203 55.2841 391.203C62.5737 391.157 68.3467 388.49 72.2605 382.658C72.6519 382.116 72.8965 381.483 73.239 380.895C73.3858 380.579 73.5325 380.217 73.7282 379.674C72.8476 379.674 72.1627 379.674 71.4777 379.674C58.0728 379.674 44.6678 379.674 31.2628 379.674C28.1807 379.674 25.5388 377.595 25.0985 374.882C24.6093 371.944 26.4684 369.186 29.5994 368.373C30.3822 368.146 31.2628 368.146 32.0945 368.146C45.157 368.146 58.2685 368.146 71.331 368.146C72.0159 368.101 72.7008 368.101 73.7771 368.101Z" fill="#97AAD6"></path></g><path d="M329.5 517C482.759 517 607 508.941 607 499C607 489.059 482.759 481 329.5 481C176.241 481 52 489.059 52 499C52 508.941 176.241 517 329.5 517Z" fill="#262F63"></path><path d="M498.979 135.446C498.979 135.446 509.611 135.627 508.943 171.891L482.746 164.503L487.223 135.416L498.979 135.446Z" fill="#262F63"></path><path d="M445.251 135.445C447.465 135.307 498.981 135.445 498.981 135.445C498.981 135.445 490.804 136.997 490.804 159.708L441.328 157.007C441.328 157.007 439.427 135.794 445.251 135.445Z" fill="#E5AB63"></path><path d="M374.042 130.855C374.042 130.855 384.674 131.036 384.006 167.3L357.797 159.912L362.279 130.831L374.042 130.855Z" fill="#262F63"></path><path d="M320.324 130.856C322.538 130.723 374.054 130.856 374.054 130.856C374.054 130.856 365.883 132.414 365.883 155.118L316.407 152.417C316.407 152.417 314.476 131.205 320.324 130.856Z" fill="#E5AB63"></path><path d="M371.876 150.017H449.854C503.154 150.017 546.363 193.22 546.363 246.514V456.737C546.363 477.41 529.602 494.169 508.926 494.169H312.779C292.113 494.156 275.367 477.401 275.367 456.737V246.514C275.367 193.22 318.576 150.017 371.876 150.017Z" fill="#E5AB63"></path><path d="M438.115 140.354V160.598H427.447V145.504C427.447 129.899 418.422 117.229 407.255 117.229H366.768C355.613 117.229 346.575 129.862 346.575 145.504V160.598H337.941V140.354C337.941 124.755 346.967 112.079 358.134 112.079H417.922C429.072 112.103 438.115 124.755 438.115 140.354Z" fill="#262F63"></path><path d="M495.629 247.115V457.339C495.632 467.267 491.689 476.79 484.667 483.811C477.646 490.831 468.122 494.771 458.192 494.771H277.436C256.761 494.771 240 478.012 240 457.339V247.115C240 193.821 283.209 150.618 336.509 150.618H399.12C424.718 150.61 449.27 160.774 467.371 178.873C485.471 196.971 495.637 221.52 495.629 247.115Z" fill="url(#paint0_linear_2953_714)"></path><path opacity="0.34" d="M495.629 247.115L518.781 488.183C512.067 495.679 489.901 492.557 473.782 494.199C472.615 491.023 476.104 482.588 476.104 479.009V465.707L482.723 215.832C482.781 208.529 481.807 201.254 479.829 194.223C490.159 209.928 495.652 228.318 495.629 247.115Z" fill="#0A0A0A"></path><path opacity="0.34" d="M367.814 310.091C420.856 310.094 463.853 353.089 463.853 406.125V448.79C463.853 461.971 453.167 472.656 439.985 472.656H295.636C289.304 472.659 283.23 470.146 278.751 465.67C274.272 461.194 271.756 455.122 271.756 448.79V406.125C271.756 380.653 281.877 356.224 299.891 338.214C317.906 320.204 342.339 310.088 367.814 310.091Z" fill="#E5AA63"></path><path d="M353.204 310.091C406.249 310.091 449.25 353.087 449.25 406.125V448.79C449.25 461.971 438.563 472.656 425.381 472.656H281.027C267.845 472.656 257.158 461.971 257.158 448.79V406.125C257.158 353.087 300.159 310.091 353.204 310.091Z" fill="#262F63"></path><path d="M410.483 229.741H278.842C277.544 229.741 276.492 230.793 276.492 232.09C276.492 233.388 277.544 234.44 278.842 234.44H410.483C411.78 234.44 412.832 233.388 412.832 232.09C412.832 230.793 411.78 229.741 410.483 229.741Z" fill="#262F63"></path><path d="M459.389 242.471C459.389 242.471 468.457 186.666 430.172 171.891C430.172 171.891 461.405 211.981 459.389 242.471Z" fill="#E5AB63"></path><path opacity="0.34" d="M546.526 225.746V262.907C528.026 265.5 510.826 262.36 478.841 243.379C445.478 223.574 423.144 197.567 423.432 180.626H513.467C538.373 180.649 546.526 200.843 546.526 225.746Z" fill="#0A0A0A"></path><path d="M592.575 198.168L451.921 114.702L423.558 162.493C414.19 178.267 438.095 209.731 476.933 232.785C515.771 255.838 554.85 261.734 564.206 245.966L592.575 198.168Z" fill="#262F63"></path><path d="M630.306 207.367L615.848 198.788L549.808 109.998L440.224 94.5788L425.766 86L422.18 92.0401L496.005 200.647L626.72 213.407L630.306 207.367Z" fill="#262F63"></path><path d="M630.306 207.367L499.591 194.607L425.766 86L553.393 103.958L630.306 207.367Z" fill="url(#paint1_linear_2953_714)"></path><path d="M535.515 155.211C537.629 151.648 534.732 146.023 529.042 142.646C523.353 139.27 517.026 139.421 514.911 142.984C512.797 146.547 515.694 152.173 521.384 155.549C527.073 158.925 533.4 158.774 535.515 155.211Z" fill="#262F63"></path><path d="M593.441 288.234H631.864L617.52 262.678L618.483 199.576L618.513 199.528L618.483 199.51L618.489 199.311L618.128 199.299L531.877 148.121L528.051 154.57L610.818 203.685L609.933 260.903L593.441 288.234Z" fill="#262F63"></path><path d="M232.443 423.322L295.43 459.661L417.769 368.814L449.263 388.195L495.291 348.223" stroke="white" stroke-width="5.20642"></path><circle cx="293.178" cy="458.3" r="4.18643" fill="white" stroke="white" stroke-width="0.526657"></circle><circle cx="416.729" cy="368.057" r="4.18643" fill="white" stroke="white" stroke-width="0.526657"></circle><circle cx="448.223" cy="387.442" r="4.18643" fill="white" stroke="white" stroke-width="0.526657"></circle><circle cx="496.672" cy="346.256" r="4.18643" fill="white" stroke="white" stroke-width="0.526657"></circle><circle cx="230.192" cy="421.957" r="4.18643" fill="white" stroke="white" stroke-width="0.526657"></circle><rect x="55.4339" y="435.66" width="7.07121" height="50.1684" stroke="white" stroke-width="0.867736"></rect><rect x="67.9085" y="454.943" width="7.07121" height="30.8881" stroke="white" stroke-width="0.867736"></rect><rect x="80.385" y="427.721" width="7.07121" height="58.1073" stroke="white" stroke-width="0.867736"></rect><rect x="92.8596" y="415.244" width="7.07121" height="70.5828" stroke="white" stroke-width="0.867736"></rect><path d="M259.642 489.484C259.642 489.484 249.307 493.841 226.076 495.673C213.358 496.664 196.771 496.891 175.897 495.216C116.895 499.953 92.1519 489.484 92.1519 489.484C46.3888 442.755 99.779 342.633 118.847 318.785C127.661 307.769 140.541 303.271 151.85 301.614C159.824 300.471 167.92 300.463 175.897 301.593C183.875 300.463 191.973 300.47 199.949 301.614C205.962 302.494 212.423 304.177 218.474 307.227C224.08 309.981 229.018 313.925 232.943 318.785C252.015 342.633 305.405 442.755 259.642 489.484Z" fill="url(#paint2_linear_2953_714)"></path><path d="M221.344 242.573C221.344 242.573 216.608 219.91 177.431 239.61C138.254 259.31 212.471 254.849 212.471 254.849C212.471 254.849 221.826 249.189 221.344 242.573Z" fill="#E8A341"></path><path d="M144.667 278.2C144.667 278.2 118.401 249.144 132.735 236.252C143.978 226.151 176.523 239.243 190.043 245.341C195.871 248.004 202.201 249.397 208.61 249.426C214.91 249.426 221.24 248.174 221.36 243.166C221.36 243.166 221.788 265.296 205.451 278.205C189.115 291.113 144.667 278.2 144.667 278.2Z" fill="url(#paint3_linear_2953_714)"></path><path d="M174.908 283.088C174.908 283.088 194.569 276.417 200.606 263.188C200.606 263.188 200.363 275.935 190.946 280.985C181.529 286.036 174.908 283.088 174.908 283.088Z" fill="#E8A341"></path><path d="M205.831 278.016H144.976C141.857 278.016 139.328 280.481 139.328 283.522V284.37C139.328 287.411 141.857 289.876 144.976 289.876H205.831C208.95 289.876 211.479 287.411 211.479 284.37V283.522C211.479 280.481 208.95 278.016 205.831 278.016Z" fill="#262F63"></path><path d="M125.49 481.618C125.49 481.618 178.654 510.528 226.303 481.618C226.303 481.618 176.284 490.339 125.49 481.618Z" fill="#E8A341"></path><path d="M145.256 255.282C145.256 255.282 148.813 275.055 163.046 278.015C163.046 278.015 147.394 264.046 145.256 255.282Z" fill="#E8A341"></path><path d="M101.457 398.594C101.457 398.594 94.9164 437.67 122.525 448.012C122.525 448.012 100.003 419.947 101.457 398.594Z" fill="#E8A341"></path><path opacity="0.34" d="M171.45 405.515C190.828 405.515 206.537 389.807 206.537 370.429C206.537 351.051 190.828 335.342 171.45 335.342C152.072 335.342 136.363 351.051 136.363 370.429C136.363 389.807 152.072 405.515 171.45 405.515Z" fill="#0A0A0A"></path><path d="M205.833 289.872H144.974C141.856 289.872 139.328 292.306 139.328 295.308C139.328 298.31 141.856 300.744 144.974 300.744H205.833C208.951 300.744 211.479 298.31 211.479 295.308C211.479 292.306 208.951 289.872 205.833 289.872Z" fill="#262F63"></path><path d="M175.895 401.56C195.546 401.56 211.476 385.63 211.476 365.979C211.476 346.329 195.546 330.398 175.895 330.398C156.245 330.398 140.314 346.329 140.314 365.979C140.314 385.63 156.245 401.56 175.895 401.56Z" fill="#EBF2FC"></path><path d="M179.21 357.663C178.133 355.29 176.361 353.866 173.731 353.459C173.037 353.357 172.324 353.34 171.63 353.34C168.854 353.323 166.096 353.34 163.32 353.323C162.005 353.323 161 352.391 161 351.187C160.982 349.949 161.987 349 163.338 349C171.119 349 178.9 349 186.662 349C188.014 349 189 349.949 189 351.187C188.982 352.374 187.995 353.306 186.68 353.323C185.164 353.34 183.63 353.323 182.169 353.323C182.863 354.747 183.557 356.137 184.306 357.663C184.945 357.663 185.767 357.663 186.589 357.663C187.995 357.68 189 358.595 189 359.85C188.982 361.071 187.977 361.969 186.607 361.986C185.785 361.986 184.964 361.986 184.196 361.986C181.913 369.038 176.507 371.276 168.945 370.564C169.292 370.92 169.457 371.09 169.639 371.259C174.242 375.531 178.845 379.804 183.448 384.093C184.543 385.11 184.635 386.347 183.74 387.28C182.881 388.144 181.511 388.246 180.525 387.5C180.361 387.365 180.196 387.229 180.05 387.076C174.023 381.482 167.977 375.887 161.968 370.259C161.548 369.869 161.165 369.31 161.055 368.784C160.781 367.479 161.895 366.326 163.338 366.326C166.334 366.309 169.311 366.326 172.306 366.326C175.028 366.309 177.183 365.309 178.644 363.122C178.79 362.918 178.881 362.681 179.009 362.461C179.064 362.342 179.119 362.206 179.192 362.003C178.863 362.003 178.607 362.003 178.352 362.003C173.347 362.003 168.343 362.003 163.338 362.003C162.187 362.003 161.201 361.223 161.037 360.206C160.854 359.104 161.548 358.07 162.717 357.765C163.009 357.68 163.338 357.68 163.649 357.68C168.525 357.68 173.42 357.68 178.297 357.68C178.553 357.663 178.808 357.663 179.21 357.663Z" fill="#262F63"></path><path opacity="0.4" d="M354.103 488.913H238.342C233.617 488.919 229.082 487.201 225.737 484.136C222.391 481.071 220.51 476.911 220.506 472.572V465.257L233.869 326.584C233.869 317.578 226.274 315.607 226.274 315.607L327.067 315.608C342.005 315.608 354.114 326.726 354.114 340.442L354.103 488.913Z" fill="black"></path><path d="M367.863 504.225H252.235C247.515 504.232 242.985 502.361 239.644 499.026C236.302 495.69 234.422 491.163 234.419 486.44V478.479L234.332 327.554C234.332 317.752 226.746 315.607 226.746 315.607H340.858C355.779 315.607 367.874 327.709 367.874 342.636L367.863 504.225Z" fill="url(#paint4_linear_2953_714)"></path><path d="M332.261 403.105H254.758V408.118H332.261V403.105Z" fill="#5982BE"></path><path d="M332.261 392.886H254.758V397.899H332.261V392.886Z" fill="#5982BE"></path><path d="M332.261 413.325H254.758V418.338H332.261V413.325Z" fill="#5982BE"></path><path d="M403.766 466.307H263.236C263.236 466.307 266.013 479.832 261.46 494.294C259.198 501.48 249.785 504.064 249.785 504.064L381.843 504.23C393.951 504.23 403.767 494.411 403.769 482.297L403.766 466.307Z" fill="#5982BE"></path><path d="M260.06 381.972H271.81V385.72H255.4V363.435H260.06V381.972ZM284.544 363.097C286.75 363.097 288.652 363.558 290.25 364.481C291.848 365.404 293.075 366.721 293.931 368.432C294.808 370.143 295.247 372.191 295.247 374.577C295.247 376.963 294.808 379.012 293.931 380.722C293.075 382.433 291.848 383.75 290.25 384.673C288.652 385.596 286.75 386.057 284.544 386.057C282.338 386.057 280.424 385.596 278.804 384.673C277.205 383.75 275.967 382.433 275.089 380.722C274.234 379.012 273.806 376.963 273.806 374.577C273.806 372.191 274.234 370.143 275.089 368.432C275.967 366.721 277.205 365.404 278.804 364.481C280.424 363.558 282.338 363.097 284.544 363.097ZM284.544 366.912C283.283 366.912 282.214 367.205 281.336 367.79C280.458 368.376 279.783 369.242 279.31 370.39C278.86 371.516 278.635 372.911 278.635 374.577C278.635 376.22 278.86 377.616 279.31 378.764C279.783 379.912 280.458 380.779 281.336 381.364C282.214 381.949 283.283 382.242 284.544 382.242C285.782 382.242 286.84 381.949 287.718 381.364C288.596 380.779 289.26 379.912 289.71 378.764C290.183 377.616 290.419 376.22 290.419 374.577C290.419 372.911 290.183 371.516 289.71 370.39C289.26 369.242 288.596 368.376 287.718 367.79C286.84 367.205 285.782 366.912 284.544 366.912ZM318.471 385.72H313.643L311.786 380.283H303.243L301.386 385.72H296.625L304.762 363.435H310.334L318.471 385.72ZM304.29 376.839H310.739L307.497 367.115L304.29 376.839ZM340.922 363.435V385.72H335.587L327.787 372.619L325.862 368.972H325.829L325.964 372.821V385.72H321.777V363.435H327.078L334.878 376.502L336.802 380.182H336.87L336.735 376.333V363.435H340.922Z" fill="#5982BE"></path><path d="M255.572 428.214L257.357 430.924L257.61 430.962L260.181 434.545H258.573L256.711 431.759L256.42 431.658L253.938 428.214H255.572ZM260.143 428.214L257.661 431.607L257.382 431.595L255.357 434.545H253.812L256.509 430.936L256.775 430.962L258.585 428.214H260.143ZM262.415 428.214L264.201 430.924L264.454 430.962L267.024 434.545H265.416L263.555 431.759L263.264 431.658L260.782 428.214H262.415ZM266.986 428.214L264.505 431.607L264.226 431.595L262.2 434.545H260.655L263.352 430.936L263.618 430.962L265.429 428.214H266.986ZM269.259 428.214L271.044 430.924L271.297 430.962L273.868 434.545H272.26L270.398 431.759L270.107 431.658L267.625 428.214H269.259ZM273.83 428.214L271.348 431.607L271.07 431.595L269.044 434.545H267.499L270.196 430.936L270.462 430.962L272.272 428.214H273.83ZM276.102 428.214L277.888 430.924L278.141 430.962L280.711 434.545H279.103L277.242 431.759L276.951 431.658L274.469 428.214H276.102ZM280.673 428.214L278.192 431.607L277.913 431.595L275.887 434.545H274.342L277.039 430.936L277.305 430.962L279.116 428.214H280.673ZM255.572 441.214L257.357 443.924L257.61 443.962L260.181 447.545H258.573L256.711 444.759L256.42 444.658L253.938 441.214H255.572ZM260.143 441.214L257.661 444.607L257.382 444.595L255.357 447.545H253.812L256.509 443.936L256.775 443.962L258.585 441.214H260.143ZM262.415 441.214L264.201 443.924L264.454 443.962L267.024 447.545H265.416L263.555 444.759L263.264 444.658L260.782 441.214H262.415ZM266.986 441.214L264.505 444.607L264.226 444.595L262.2 447.545H260.655L263.352 443.936L263.618 443.962L265.429 441.214H266.986ZM269.259 441.214L271.044 443.924L271.297 443.962L273.868 447.545H272.26L270.398 444.759L270.107 444.658L267.625 441.214H269.259ZM273.83 441.214L271.348 444.607L271.07 444.595L269.044 447.545H267.499L270.196 443.936L270.462 443.962L272.272 441.214H273.83Z" fill="#5982BE"></path><g opacity="0.2" filter="url(#filter0_d_2953_714)"><path d="M391.125 322.795C391.125 337.99 371.282 345.939 352.6 345.939C333.919 345.939 322.676 333.058 322.676 317.67C322.676 308.276 366.779 325.806 346.432 314.713C365.114 314.713 391.125 307.6 391.125 322.795Z" fill="black"></path></g><path d="M361.668 344.427C380.938 344.427 396.56 328.798 396.56 309.518C396.56 290.239 380.938 274.609 361.668 274.609C342.397 274.609 326.775 290.239 326.775 309.518C326.775 328.798 342.397 344.427 361.668 344.427Z" fill="white"></path><path d="M403.239 309.76C403.239 328.126 388.35 343.016 369.983 343.016C351.617 343.016 336.728 328.126 336.728 309.76C336.728 291.393 351.617 276.504 369.983 276.504C388.35 276.504 403.239 291.393 403.239 309.76Z" stroke="white" stroke-width="1.06085"></path><path d="M356.414 322.796C355.684 322.797 354.976 322.542 354.414 322.076L346.972 315.911C346.095 315.2 345.666 314.072 345.851 312.958C346.035 311.843 346.804 310.914 347.864 310.524C348.924 310.134 350.112 310.345 350.974 311.074L356.08 315.305L372.042 297.297C373.192 296 375.176 295.881 376.472 297.032C377.769 298.183 377.888 300.167 376.738 301.465L358.764 321.74C358.168 322.413 357.312 322.798 356.414 322.796Z" fill="#71BEB5"></path><defs><filter id="filter0_d_2953_714" x="319.205" y="313.05" width="75.3911" height="39.8315" color-interpolation-filters="sRGB"><feFlood flood-opacity="0" result="BackgroundImageFix"></feFlood><feColorMatrix in="SourceAlpha" type="matrix" values="0 0 0 0 0 0 0 0 0 0 0 0 0 0 0 0 0 0 127 0" result="hardAlpha"></feColorMatrix><feOffset dy="3.47094"></feOffset><feGaussianBlur stdDeviation="1.73547"></feGaussianBlur><feComposite in2="hardAlpha" operator="out"></feComposite><feColorMatrix type="matrix" values="0 0 0 0 0 0 0 0 0 0 0 0 0 0 0 0 0 0 0.25 0"></feColorMatrix><feBlend mode="normal" in2="BackgroundImageFix" result="effect1_dropShadow_2953_714"></feBlend><feBlend mode="normal" in="SourceGraphic" in2="effect1_dropShadow_2953_714" result="shape"></feBlend></filter><linearGradient id="paint0_linear_2953_714" x1="337.025" y1="216.5" x2="470.525" y2="476.5" gradientUnits="userSpaceOnUse"><stop stop-color="#F2BA76"></stop><stop offset="0.98" stop-color="#E5AA62"></stop></linearGradient><linearGradient id="paint1_linear_2953_714" x1="528.036" y1="86" x2="528.036" y2="207.367" gradientUnits="userSpaceOnUse"><stop stop-color="#8ACABF"></stop><stop offset="1" stop-color="#539C8F"></stop></linearGradient><linearGradient id="paint2_linear_2953_714" x1="175.897" y1="427.504" x2="128.769" y2="312.987" gradientUnits="userSpaceOnUse"><stop stop-color="#E9A342"></stop><stop offset="1" stop-color="#F3BF75"></stop></linearGradient><linearGradient id="paint3_linear_2953_714" x1="178.663" y1="267.123" x2="177.175" y2="250.428" gradientUnits="userSpaceOnUse"><stop stop-color="#E8A341"></stop><stop offset="0.98" stop-color="#F3BF75"></stop></linearGradient><linearGradient id="paint4_linear_2953_714" x1="297.31" y1="315.607" x2="297.31" y2="504.225" gradientUnits="userSpaceOnUse"><stop stop-color="#F3FAFC"></stop><stop offset="1" stop-color="#DDE5FC"></stop></linearGradient></defs></svg> 